<?xml version="1.0" encoding="utf-8"?>
<!-- Generator: Adobe Illustrator 24.0.0, SVG Export Plug-In . SVG Version: 6.00 Build 0)  -->
<svg version="1.1" id="图层_1" xmlns="http://www.w3.org/2000/svg" xmlns:xlink="http://www.w3.org/1999/xlink" x="0px" y="0px"
	 viewBox="0 0 555 124" style="enable-background:new 0 0 555 124;" xml:space="preserve">
<style type="text/css">
	.st0{fill:#F2F2F2;}
	.st1{fill:#FF6835;}
</style>
<g>
	<path class="st0" d="M92,58.59l7.93-9.6H79l3.39-4.11h31.64l-11.09,13.44l-6.97,2.05l3.18,3.28L88.28,76.8H55.64l3.35-4.05h21.32
		l8.21-9.94H69.14l3.48-4.22H92z"/>
	<path class="st0" d="M119.24,64.86h13.32l-6.9,4.39h-11.88l-9.22,7.61H92.68l39.24-31.92h20.43l-13.43,31.92h-11.77l5.41-11.99
		l6.93-15.66h-1.78L119.24,64.86z"/>
	<path class="st1" d="M202.43,72.69l9.26-11.21h-8.27l3.48-4.22h19.38l-16.18,19.6h-11.1l2.8-3.39l-6.13,3.39h-24.54l26.36-31.92
		h39.14l-5.88,4.16h-25.32l-19.48,23.59H202.43z"/>
	<path class="st1" d="M246.51,76.8h-10.88l3.07-3.72l-5.46,3.72h-18.15l18.52-22.43h20.54l-5.72,3.83h-7.49l-12.29,14.88h10.05
		l15.45-18.71h10.22l-15.45,18.71h3.22L246.51,76.8z"/>
	<path class="st1" d="M263.48,76.69h-10.21l18.48-22.37h33.53l-6.63,4h-3.22l-15.17,18.38h-10.33l15.17-18.38h-6.44L263.48,76.69z
		 M297.01,76.69h-10.21l18.48-22.37h10.21L297.01,76.69z"/>
	<path class="st1" d="M339.79,68.25h-20.65l-3.85,4.66h21.93l-5.49,3.89h-30.37l18.52-22.43h20.65l-6.72,4.11h-6.61l-4.68,5.66h9.94
		l8.07-9.77h10.71L339.79,68.25z"/>
	<path class="st1" d="M376.2,76.85H338.4l3.44-4.16h26.48l11.69-14.16h11.32L376.2,76.85z M372.79,48.98l-7.89,9.55h15.1l-7.28,4.11
		h-22.48l14.63-17.71h39.03l-5.46,4.05H372.79z"/>
	<path class="st1" d="M406.22,54.42l6.05-7.33h10.71l-6.05,7.33h9.77l-6.02,4h-7.05l-11.97,14.49h9.27l-5.54,3.89h-17.65
		l15.17-18.38h-5.72l3.3-4H406.22z"/>
	<path class="st1" d="M426.7,72.91h9.99l15.27-18.49h10.71L444.2,76.8h-31.53l18.48-22.37h20.82l-6.58,4h-6.72L426.7,72.91z"/>
	<path class="st1" d="M462.48,72.74h10.21l15.13-18.32h10.66L480.01,76.8h-20.87l-7.06,8.55h-10.49l25.54-30.92h20.71l-6.69,4h-6.83
		L462.48,72.74z"/>
</g>
</svg>
